<svg width="4404" height="2481" xmlns="http://www.w3.org/2000/svg" xmlns:xlink="http://www.w3.org/1999/xlink" overflow="hidden"><defs><clipPath id="clip0"><rect x="-4" y="-4" width="4404" height="2481"/></clipPath></defs><g clip-path="url(#clip0)" transform="translate(4 4)"><rect x="3878.5" y="0.499836" width="513" height="2472" stroke="#FFE28F" stroke-width="9.16667" stroke-linejoin="round" stroke-miterlimit="10" fill="#FFE28F"/><rect x="3376.5" y="0.499836" width="541" height="2472" stroke="#FFA593" stroke-width="9.16667" stroke-linejoin="round" stroke-miterlimit="10" fill="#FFA593"/><rect x="1454.5" y="0.499836" width="1922" height="2472" stroke="#FF9FBA" stroke-width="9.16667" stroke-linejoin="round" stroke-miterlimit="10" fill="#FF9FBA"/><rect x="522.5" y="0.499836" width="932" height="2472" stroke="#FC74AE" stroke-width="9.16667" stroke-linejoin="round" stroke-miterlimit="10" fill="#FC74AE"/><rect x="0.499836" y="0.499836" width="520" height="2472" stroke="#E292CB" stroke-width="9.16667" stroke-linejoin="round" stroke-miterlimit="10" fill="#E292CB"/><rect x="0.499836" y="1182.5" width="440" height="122" stroke="#000000" stroke-width="4.58333" stroke-linejoin="round" stroke-miterlimit="10" fill="#FFFFFF" fill-opacity="0.6"/><text font-family="Arial,Arial_MSFontService,sans-serif" font-weight="400" font-size="37" transform="matrix(1 0 0 1 33 1234)">variantDiscoveryFJD_<tspan font-size="37" x="0" y="44">panelWES.py (673)</tspan></text><rect x="582.5" y="126.5" width="780" height="78" stroke="#000000" stroke-width="4.58333" stroke-linejoin="round" stroke-miterlimit="10" fill="#FFFFFF" fill-opacity="0.6"/><text font-family="Arial,Arial_MSFontService,sans-serif" font-weight="400" font-size="37" transform="matrix(1 0 0 1 615.394 178)">pipeline1_downloadMapping.sh (78)</text><path d="M2.27188-0.300475 141.891 1055.35 137.347 1055.95-2.27188 0.300475ZM152.649 1049.31 142.624 1078.37 125.387 1052.91Z" transform="matrix(1 0 0 -1 440.5 1243.87)"/><rect x="2026.5" y="33.4998" width="520" height="78" stroke="#000000" stroke-width="4.58333" stroke-linejoin="round" stroke-miterlimit="10" fill="#FFFFFF" fill-opacity="0.6"/><text font-family="Arial,Arial_MSFontService,sans-serif" font-weight="400" font-size="37" transform="matrix(1 0 0 1 2059.17 86)">fastqDownload.py (107)</text><path d="M0.316986-2.26964 641.873 87.3326 641.239 91.8718-0.316986 2.26964ZM638.919 75.3504 664.252 92.7721 635.115 102.586Z" transform="matrix(1 0 0 -1 1362.5 165.272)"/><rect x="582.5" y="507.5" width="780" height="78" stroke="#000000" stroke-width="4.58333" stroke-linejoin="round" stroke-miterlimit="10" fill="#FFFFFF" fill-opacity="0.6"/><text font-family="Arial,Arial_MSFontService,sans-serif" font-weight="400" font-size="37" transform="matrix(1 0 0 1 615.394 560)">pipeline2_QCbamSNVCallingFiltering.sh (87)</text><rect x="582.5" y="937.5" width="780" height="78" stroke="#000000" stroke-width="4.58333" stroke-linejoin="round" stroke-miterlimit="10" fill="#FFFFFF" fill-opacity="0.6"/><text font-family="Arial,Arial_MSFontService,sans-serif" font-weight="400" font-size="37" transform="matrix(1 0 0 1 615.394 989)">pipeline4_LohAnnotationOutput.sh (202)</text><rect x="582.5" y="1366.5" width="780" height="78" stroke="#000000" stroke-width="4.58333" stroke-linejoin="round" stroke-miterlimit="10" fill="#FFFFFF" fill-opacity="0.6"/><text font-family="Arial,Arial_MSFontService,sans-serif" font-weight="400" font-size="37" transform="matrix(1 0 0 1 615.394 1419)">pipeline5_combinedGenotyping.sh.sh (73)</text><rect x="582.5" y="1796.5" width="780" height="78" stroke="#000000" stroke-width="4.58333" stroke-linejoin="round" stroke-miterlimit="10" fill="#FFFFFF" fill-opacity="0.6"/><text font-family="Arial,Arial_MSFontService,sans-serif" font-weight="400" font-size="37" transform="matrix(1 0 0 1 615.394 1849)">pipeline9_CNVcalling.sh (410)</text><path d="M2.24513-0.459481 140.274 673.981 135.784 674.899-2.24513 0.459481ZM150.581 667.193 142.624 696.892 123.639 672.707Z" transform="matrix(1 0 0 -1 440.5 1243.39)"/><path d="M2.02183-1.07885 133.857 245.988 129.813 248.146-2.02183 1.07885ZM141.808 236.55 142.624 267.285 117.546 249.496Z" transform="matrix(1 0 0 -1 440.5 1243.78)"/><path d="M442.221 1241.99 569.719 1387.09 566.276 1390.12 438.778 1245.01ZM575.301 1376.09 583.123 1405.82 554.643 1394.24Z"/><path d="M442.728 1242.96 579.983 1812.61 575.528 1813.69 438.272 1244.04ZM590.049 1805.47 583.123 1835.43 563.314 1811.92Z"/><rect x="2026.5" y="130.5" width="520" height="78" stroke="#000000" stroke-width="4.58333" stroke-linejoin="round" stroke-miterlimit="10" fill="#FFFFFF" fill-opacity="0.6"/><text font-family="Arial,Arial_MSFontService,sans-serif" font-weight="400" font-size="37" transform="matrix(1 0 0 1 2059.17 183)">mapping.sh (195)</text><path d="M1362.52 163.208 2003.85 167.635 2003.82 172.218 1362.48 167.791ZM1999.35 156.145 2026.75 170.085 1999.16 183.645Z"/><rect x="2026.5" y="228.5" width="520" height="77" stroke="#000000" stroke-width="4.58333" stroke-linejoin="round" stroke-miterlimit="10" fill="#FFFFFF" fill-opacity="0.6"/><text font-family="Arial,Arial_MSFontService,sans-serif" font-weight="400" font-size="37" transform="matrix(1 0 0 1 2059.17 280)">BAMpreprocessing.sh (310)</text><path d="M1.20122-1.95162 1568.09 962.467 1565.68 966.371-1.20122 1.95162ZM1570.19 950.307 1586.4 976.432 1555.78 973.727Z" transform="matrix(1 0 0 -1 440.5 1243.93)"/><rect x="2026.5" y="2272.5" width="520" height="78" stroke="#000000" stroke-width="4.58333" stroke-linejoin="round" stroke-miterlimit="10" fill="#FFFFFF" fill-opacity="0.6"/><text font-family="Arial,Arial_MSFontService,sans-serif" font-weight="400" font-size="37" transform="matrix(1 0 0 1 2059.17 2325)">removeDirs.sh (25)</text><rect x="2026.5" y="2370.5" width="520" height="77" stroke="#000000" stroke-width="4.58333" stroke-linejoin="round" stroke-miterlimit="10" fill="#FFFFFF" fill-opacity="0.6"/><text font-family="Arial,Arial_MSFontService,sans-serif" font-weight="400" font-size="37" transform="matrix(1 0 0 1 2059.17 2422)">checkprojects.sh (62)</text><path d="M441.78 1241.6 2009.18 2296.87 2006.62 2300.68 439.22 1245.4ZM2011.77 2284.81 2026.9 2311.57 1996.41 2307.62Z"/><path d="M441.857 1241.65 2009.79 2393.51 2007.08 2397.2 439.143 1245.35ZM2012.88 2381.56 2026.9 2408.92 1996.6 2403.72Z"/><rect x="2026.5" y="325.5" width="520" height="78" stroke="#000000" stroke-width="4.58333" stroke-linejoin="round" stroke-miterlimit="10" fill="#FFFFFF" fill-opacity="0.6"/><text font-family="Arial,Arial_MSFontService,sans-serif" font-weight="400" font-size="37" transform="matrix(1 0 0 1 2059.17 378)">Mosdepth.sh (188)</text><path d="M0.606145-2.21005 642.759 173.911 641.547 178.332-0.606145 2.21005ZM641.369 161.649 664.253 182.183 634.095 188.169Z" transform="matrix(1 0 0 -1 1362.5 546.683)"/><rect x="2026.5" y="422.5" width="520" height="78" stroke="#000000" stroke-width="4.58333" stroke-linejoin="round" stroke-miterlimit="10" fill="#FFFFFF" fill-opacity="0.6"/><text font-family="Arial,Arial_MSFontService,sans-serif" font-weight="400" font-size="37" transform="matrix(1 0 0 1 2059.17 475)">SNVcalling.sh (232)</text><path d="M0.290289-2.27321 641.812 79.6493 641.231 84.1957-0.290289 2.27321ZM638.716 67.7025 664.253 84.8252 635.233 94.981Z" transform="matrix(1 0 0 -1 1362.5 546.325)"/><rect x="2026.5" y="520.5" width="520" height="78.0001" stroke="#000000" stroke-width="4.58333" stroke-linejoin="round" stroke-miterlimit="10" fill="#FFFFFF" fill-opacity="0.6"/><text font-family="Arial,Arial_MSFontService,sans-serif" font-weight="400" font-size="37" transform="matrix(1 0 0 1 2059.17 572)">SNVfiltering.sh (275)</text><path d="M1362.54 544.209 2003.88 556.309 2003.8 560.891 1362.46 548.791ZM1999.52 544.766 2026.75 559.032 1999 572.261Z"/><path d="M2.0886-0.943135 656.908 1449.17 652.731 1451.06-2.0886 0.943135ZM665.467 1440.28 664.253 1471 640.404 1451.6Z" transform="matrix(1 0 0 -1 1362.5 1835.5)"/><rect x="2026.5" y="617.5" width="520" height="78" stroke="#000000" stroke-width="4.58333" stroke-linejoin="round" stroke-miterlimit="10" fill="#FFFFFF" fill-opacity="0.6"/><text font-family="Arial,Arial_MSFontService,sans-serif" font-weight="400" font-size="37" transform="matrix(1 0 0 1 2059.17 670)">VEPannotation.sh (195)</text><rect x="2026.5" y="715.5" width="520" height="77" stroke="#000000" stroke-width="4.58333" stroke-linejoin="round" stroke-miterlimit="10" fill="#FFFFFF" fill-opacity="0.6"/><text font-family="Arial,Arial_MSFontService,sans-serif" font-weight="400" font-size="37" transform="matrix(1 0 0 1 2059.17 767)">LOH.sh (150)</text><path d="M0.993891-2.06493 644.598 307.715 642.61 311.845-0.993891 2.06493ZM645.437 295.402 664.252 319.718 633.51 320.181Z" transform="matrix(1 0 0 -1 1362.5 976.218)"/><path d="M0.727466-2.17314 643.249 212.913 641.794 217.259-0.727466 2.17314ZM642.54 200.593 664.253 222.361 633.81 226.67Z" transform="matrix(1 0 0 -1 1362.5 975.861)"/><rect x="2026.5" y="812.5" width="520" height="78" stroke="#000000" stroke-width="4.58333" stroke-linejoin="round" stroke-miterlimit="10" fill="#FFFFFF" fill-opacity="0.6"/><text font-family="Arial,Arial_MSFontService,sans-serif" font-weight="400" font-size="37" transform="matrix(1 0 0 1 2059.17 864)">vep2tsv_woFReq.py (641)</text><rect x="2026.5" y="909.5" width="520" height="78.0001" stroke="#000000" stroke-width="4.58333" stroke-linejoin="round" stroke-miterlimit="10" fill="#FFFFFF" fill-opacity="0.6"/><text font-family="Arial,Arial_MSFontService,sans-serif" font-weight="400" font-size="37" transform="matrix(1 0 0 1 2059.17 962)">PVM_Cluster.py (315)</text><rect x="2026.5" y="1007.5" width="520" height="76.9999" stroke="#000000" stroke-width="4.58333" stroke-linejoin="round" stroke-miterlimit="10" fill="#FFFFFF" fill-opacity="0.6"/><text font-family="Arial,Arial_MSFontService,sans-serif" font-weight="400" font-size="37" transform="matrix(1 0 0 1 2059.17 1059)">filtering_geneList.py (75)</text><path d="M0.423822-2.25213 642.155 118.513 641.308 123.017-0.423822 2.25213ZM639.77 106.405 664.252 125.003 634.684 133.43Z" transform="matrix(1 0 0 -1 1362.5 976.503)"/><path d="M0.0952966-2.28968 641.452 24.4035 641.261 28.9829-0.0952966 2.28968ZM637.348 12.7645 664.252 27.6462 636.204 40.2407Z" transform="matrix(1 0 0 -1 1362.5 976.146)"/><path d="M1362.74 974.221 2004.2 1041.54 2003.72 1046.1 1362.26 978.779ZM2000.84 1029.67 2026.75 1046.21 1997.97 1057.02Z"/><rect x="2026.5" y="1104.5" width="520" height="78" stroke="#000000" stroke-width="4.58333" stroke-linejoin="round" stroke-miterlimit="10" fill="#FFFFFF" fill-opacity="0.6"/><text font-family="Arial,Arial_MSFontService,sans-serif" font-weight="400" font-size="37" transform="matrix(1 0 0 1 2059.17 1156)">combinedGVCF.sh (99)</text><rect x="2026.5" y="1201.5" width="520" height="78" stroke="#000000" stroke-width="4.58333" stroke-linejoin="round" stroke-miterlimit="10" fill="#FFFFFF" fill-opacity="0.6"/><text font-family="Arial,Arial_MSFontService,sans-serif" font-weight="400" font-size="37" transform="matrix(1 0 0 1 2059.17 1254)">genotyping.sh (127)</text><path d="M0.842351-2.13124 643.783 251.984 642.098 256.247-0.842351 2.13124ZM643.732 239.643 664.253 262.539 633.624 265.218Z" transform="matrix(1 0 0 -1 1362.5 1406.04)"/><path d="M0.553034-2.22394 642.565 157.427 641.459 161.875-0.553034 2.22394ZM640.883 145.202 664.252 165.182 634.247 171.889Z" transform="matrix(1 0 0 -1 1362.5 1405.68)"/><path d="M1.80301-1.41453 651.912 827.24 648.306 830.069-1.80301 1.41453ZM658.096 816.559 664.253 846.682 636.46 833.533Z" transform="matrix(1 0 0 -1 1362.5 1406.18)"/><rect x="2026.5" y="1299.5" width="520" height="77" stroke="#000000" stroke-width="4.58333" stroke-linejoin="round" stroke-miterlimit="10" fill="#FFFFFF" fill-opacity="0.6"/><text font-family="Arial,Arial_MSFontService,sans-serif" font-weight="400" font-size="37" transform="matrix(1 0 0 1 2059.17 1351)">genotypeRefinement.sh (153)</text><path d="M0.232783-2.27981 641.685 63.2165 641.22 67.7761-0.232783 2.27981ZM638.291 51.352 664.252 67.8243 635.498 78.7098Z" transform="matrix(1 0 0 -1 1362.5 1406.32)"/><rect x="2026.5" y="1396.5" width="520" height="77.9996" stroke="#000000" stroke-width="4.58333" stroke-linejoin="round" stroke-miterlimit="10" fill="#FFFFFF" fill-opacity="0.6"/><text font-family="Arial,Arial_MSFontService,sans-serif" font-weight="400" font-size="37" transform="matrix(1 0 0 1 2059.17 1449)">CNV_windowSize.py (71)</text><path d="M1.18236-1.9631 645.804 386.287 643.439 390.214-1.18236 1.9631ZM647.789 374.107 664.252 400.074 633.601 397.664Z" transform="matrix(1 0 0 -1 1362.5 1835.57)"/><rect x="2026.5" y="1493.5" width="520" height="78" stroke="#000000" stroke-width="4.58333" stroke-linejoin="round" stroke-miterlimit="10" fill="#FFFFFF" fill-opacity="0.6"/><text font-family="Arial,Arial_MSFontService,sans-serif" font-weight="400" font-size="37" transform="matrix(1 0 0 1 2059.17 1546)">plot<tspan font-size="37" x="59.5835" y="0">-</tspan>dist.py (115)</text><path d="M0.950338-2.08533 644.349 291.128 642.449 295.299-0.950338 2.08533ZM644.931 278.801 664.253 302.717 633.527 303.825Z" transform="matrix(1 0 0 -1 1362.5 1835.22)"/><rect x="2026.5" y="1591.5" width="520" height="77" stroke="#000000" stroke-width="4.58333" stroke-linejoin="round" stroke-miterlimit="10" fill="#FFFFFF" fill-opacity="0.6"/><text font-family="Arial,Arial_MSFontService,sans-serif" font-weight="400" font-size="37" transform="matrix(1 0 0 1 2059.17 1643)">exomeDepth.R<tspan font-size="37" x="256.094" y="0">(277)</tspan></text><rect x="2026.5" y="1688.5" width="520" height="78" stroke="#000000" stroke-width="4.58333" stroke-linejoin="round" stroke-miterlimit="10" fill="#FFFFFF" fill-opacity="0.6"/><text font-family="Arial,Arial_MSFontService,sans-serif" font-weight="400" font-size="37" transform="matrix(1 0 0 1 2059.17 1741)">CoNVading_pipeline.py (214)</text><rect x="2026.5" y="1785.5" width="520" height="78" stroke="#000000" stroke-width="4.58333" stroke-linejoin="round" stroke-miterlimit="10" fill="#FFFFFF" fill-opacity="0.6"/><text font-family="Arial,Arial_MSFontService,sans-serif" font-weight="400" font-size="37" transform="matrix(1 0 0 1 2059.17 1838)">CODEX2.R (297)</text><rect x="2026.5" y="1883.5" width="520" height="78" stroke="#000000" stroke-width="4.58333" stroke-linejoin="round" stroke-miterlimit="10" fill="#FFFFFF" fill-opacity="0.6"/><text font-family="Arial,Arial_MSFontService,sans-serif" font-weight="400" font-size="37" transform="matrix(1 0 0 1 2059.17 1935)">panelcnMops.R<tspan font-size="37" x="266.406" y="0">(143)</tspan></text><rect x="2026.5" y="1980.5" width="520" height="78.0001" stroke="#000000" stroke-width="4.58333" stroke-linejoin="round" stroke-miterlimit="10" fill="#FFFFFF" fill-opacity="0.6"/><text font-family="Arial,Arial_MSFontService,sans-serif" font-weight="400" font-size="37" transform="matrix(1 0 0 1 2059.17 2033)">CNV_result_mixer.R<tspan font-size="37" x="344.896" y="0">(382)</tspan></text><rect x="2026.5" y="2078.5" width="520" height="77" stroke="#000000" stroke-width="4.58333" stroke-linejoin="round" stroke-miterlimit="10" fill="#FFFFFF" fill-opacity="0.6"/><text font-family="Arial,Arial_MSFontService,sans-serif" font-weight="400" font-size="37" transform="matrix(1 0 0 1 2059.17 2130)">CNV_tsv2vcf.sh (64)</text><path d="M0.676881-2.18942 643.035 196.402 641.681 200.78-0.676881 2.18942ZM642.041 184.101 664.253 205.36 633.918 210.374Z" transform="matrix(1 0 0 -1 1362.5 1835.86)"/><path d="M0.367778-2.26196 642.002 102.063 641.266 106.587-0.367778 2.26196ZM639.315 90.0173 664.252 108.002 634.902 117.161Z" transform="matrix(1 0 0 -1 1362.5 1835.5)"/><path d="M0.0367213-2.29137 641.376 7.98666 641.302 12.5694-0.0367213 2.29137ZM636.977-3.54365 664.253 10.6452 636.536 23.9528Z" transform="matrix(1 0 0 -1 1362.5 1835.15)"/><path d="M1362.8 1833.23 2004.33 1916.97 2003.73 1921.52 1362.2 1837.77ZM2001.26 1905.02 2026.75 1922.21 1997.7 1932.29Z"/><path d="M1363.11 1833.29 2005.28 2011.24 2004.06 2015.66 1361.89 1837.71ZM2003.92 1998.97 2026.75 2019.57 1996.58 2025.48Z"/><path d="M1363.39 1833.39 2006.55 2105.88 2004.76 2110.1 1361.61 1837.61ZM2006.8 2093.54 2026.75 2116.93 1996.07 2118.86Z"/><rect x="2026.5" y="2175.5" width="520" height="78" stroke="#000000" stroke-width="4.58333" stroke-linejoin="round" stroke-miterlimit="10" fill="#FFFFFF" fill-opacity="0.6"/><text font-family="Arial,Arial_MSFontService,sans-serif" font-weight="400" font-size="37" transform="matrix(1 0 0 1 2059.17 2227)">CNVfinalMerge.R<tspan font-size="37" x="296.198" y="0">(40)</tspan></text><path d="M1363.64 1833.51 2007.98 2200.94 2005.71 2204.92 1361.36 1837.49ZM2009.67 2188.72 2026.75 2214.28 1996.05 2212.61Z"/><rect x="2645.5" y="1610.5" width="416" height="78" stroke="#000000" stroke-width="4.58333" stroke-linejoin="round" stroke-miterlimit="10" fill="#FFFFFF" fill-opacity="0.6"/><text font-family="Arial,Arial_MSFontService,sans-serif" font-weight="400" font-size="37" transform="matrix(1 0 0 1 2678.45 1662)">CoNVaDING.py (145)</text><path d="M1.41692-1.80113 82.9928 62.3736 80.159 65.9758-1.41692 1.80113ZM86.4752 50.5341 99.5872 78.344 69.4721 72.1476Z" fill="#4472C4" transform="matrix(1 0 0 -1 2546.5 1727.84)"/><rect x="2645.5" y="1766.5" width="416" height="78" stroke="#000000" stroke-width="4.58333" stroke-linejoin="round" stroke-miterlimit="10" fill="#FFFFFF" fill-opacity="0.6"/><text font-family="Arial,Arial_MSFontService,sans-serif" font-weight="400" font-size="37" transform="matrix(1 0 0 1 2678.45 1818)">CoNVaDING.pl (2595)</text><path d="M2547.91 1725.69 2629.45 1789.44 2626.62 1793.05 2545.09 1729.31ZM2632.89 1777.59 2646.09 1805.36 2615.95 1799.26Z" fill="#4472C4"/><rect x="3430.5" y="1279.5" width="416" height="77" stroke="#4472C4" stroke-width="4.58333" stroke-linejoin="round" stroke-miterlimit="10" fill="#FFFFFF" fill-opacity="0.6"/><text font-family="Arial,Arial_MSFontService,sans-serif" font-weight="400" font-size="37" transform="matrix(1 0 0 1 3463.35 1331)">mosdepth<tspan font-size="37" x="172.448" y="0">v0.2.5 </tspan></text><rect x="3430.5" y="1134.5" width="416" height="78" stroke="#4472C4" stroke-width="4.58333" stroke-linejoin="round" stroke-miterlimit="10" fill="#FFFFFF" fill-opacity="0.6"/><text font-family="Arial,Arial_MSFontService,sans-serif" font-weight="400" font-size="37" transform="matrix(1 0 0 1 3463.35 1186)">bedtools<tspan font-size="37" x="150.104" y="0">v2.27.0</tspan></text><rect x="3976.5" y="1280.5" width="299" height="78" stroke="#4472C4" stroke-width="4.58333" stroke-linejoin="round" stroke-miterlimit="10" fill="#FFFFFF" fill-opacity="0.6"/><text font-family="Arial,Arial_MSFontService,sans-serif" font-weight="400" font-size="37" transform="matrix(1 0 0 1 4008.72 1333)">miniconda<tspan font-size="37" x="167.865" y="0">/2.6</tspan></text><path d="M3429.31 1319.58 2560.4 382.856 2563.76 379.739 3432.67 1316.47ZM2555.12 394.012 2546.5 364.5 2575.28 375.31Z" fill="#4472C4"/><path d="M3429.45 1174.97 2561.86 381.652 2564.95 378.27 3432.54 1171.59ZM2557.52 393.205 2546.5 364.5 2576.07 372.91Z" fill="#4472C4"/><path d="M3976.09 1322.65 3869.38 1321.12 3869.45 1316.54 3976.16 1318.07ZM3873.8 1332.64 3846.5 1318.5 3874.19 1305.15Z" fill="#3F6EC3"/><rect x="3976.5" y="556.5" width="299" height="78.0001" stroke="#4472C4" stroke-width="4.58333" stroke-linejoin="round" stroke-miterlimit="10" fill="#FFFFFF" fill-opacity="0.6"/><text font-family="Arial,Arial_MSFontService,sans-serif" font-weight="400" font-size="37" transform="matrix(1 0 0 1 4008.72 608)">samtools<tspan font-size="37" x="147.24" y="0">/1.9</tspan></text><rect x="3976.5" y="701.5" width="299" height="77" stroke="#4472C4" stroke-width="4.58333" stroke-linejoin="round" stroke-miterlimit="10" fill="#FFFFFF" fill-opacity="0.6"/><text font-family="Arial,Arial_MSFontService,sans-serif" font-weight="400" font-size="37" transform="matrix(1 0 0 1 4008.72 753)">picard<tspan font-size="37" x="100.261" y="0">/2.18.9</tspan></text><rect x="3976.5" y="846.5" width="299" height="77" stroke="#4472C4" stroke-width="4.58333" stroke-linejoin="round" stroke-miterlimit="10" fill="#FFFFFF" fill-opacity="0.6"/><text font-family="Arial,Arial_MSFontService,sans-serif" font-weight="400" font-size="37" transform="matrix(1 0 0 1 4008.72 898)">gatk<tspan font-size="37" x="69.896" y="0">/4.2.0</tspan></text><rect x="3976.5" y="1136.5" width="299" height="77" stroke="#4472C4" stroke-width="4.58333" stroke-linejoin="round" stroke-miterlimit="10" fill="#FFFFFF" fill-opacity="0.6"/><text font-family="Arial,Arial_MSFontService,sans-serif" font-weight="400" font-size="37" transform="matrix(1 0 0 1 4008.72 1188)">bedtools<tspan font-size="37" x="139.792" y="0">/2.27.0</tspan></text><path d="M3976.1 1177.46 3869.39 1176.09 3869.44 1171.5 3976.15 1172.87ZM3873.82 1187.6 3846.5 1173.5 3874.17 1160.1Z" fill="#3F6EC3"/><rect x="3976.5" y="991.5" width="299" height="77" stroke="#4472C4" stroke-width="4.58333" stroke-linejoin="round" stroke-miterlimit="10" fill="#FFFFFF" fill-opacity="0.6"/><text font-family="Arial,Arial_MSFontService,sans-serif" font-weight="400" font-size="37" transform="matrix(1 0 0 1 4008.72 1043)">R/R</text><rect x="3430.5" y="989.5" width="416" height="77.9997" stroke="#4472C4" stroke-width="4.58333" stroke-linejoin="round" stroke-miterlimit="10" fill="#FFFFFF" fill-opacity="0.6"/><text font-family="Arial,Arial_MSFontService,sans-serif" font-weight="400" font-size="37" transform="matrix(1 0 0 1 3463.35 1042)">R v3.5.0</text><path d="M3976.1 1032.27 3869.39 1031.05 3869.44 1026.47 3976.15 1027.68ZM3873.84 1042.56 3846.5 1028.5 3874.15 1015.06Z" fill="#3F6EC3"/><rect x="3430.5" y="844.5" width="416" height="78" stroke="#4472C4" stroke-width="4.58333" stroke-linejoin="round" stroke-miterlimit="10" fill="#FFFFFF" fill-opacity="0.6"/><text font-family="Arial,Arial_MSFontService,sans-serif" font-weight="400" font-size="37" transform="matrix(1 0 0 1 3463.35 897)">gatk<tspan font-size="37" x="80.2085" y="0">v4.2.0</tspan></text><rect x="3430.5" y="700.5" width="416" height="77" stroke="#4472C4" stroke-width="4.58333" stroke-linejoin="round" stroke-miterlimit="10" fill="#FFFFFF" fill-opacity="0.6"/><text font-family="Arial,Arial_MSFontService,sans-serif" font-weight="400" font-size="37" transform="matrix(1 0 0 1 3463.35 752)">picard<tspan font-size="37" x="110.573" y="0">v2.18.9</tspan></text><path d="M3976.1 887.074 3869.39 886.018 3869.44 881.435 3976.15 882.491ZM3873.86 897.521 3846.5 883.5 3874.13 870.023Z" fill="#3F6EC3"/><path d="M3976.11 742.883 3869.4 741.984 3869.44 737.401 3976.14 738.3ZM3873.88 753.481 3846.5 739.5 3874.11 725.982Z" fill="#3F6EC3"/><path d="M3429.91 741.42 2565.64 280.309 2567.8 276.265 3432.07 737.377ZM2564.29 292.576 2546.5 267.5 2577.24 268.313Z" fill="#4472C4"/><path d="M3429.68 886.024 2563.99 282.485 2566.61 278.726 3432.3 882.265ZM2561.2 294.507 2546.5 267.5 2576.92 271.948Z" fill="#4472C4"/><path d="M3429.5 1030.63 2562.38 284.19 2565.37 280.716 3432.49 1027.15ZM2558.37 295.862 2546.5 267.5 2576.31 275.02Z" fill="#4472C4"/><path d="M3429.35 1175.24 2560.87 285.499 2564.15 282.298 3432.63 1172.04ZM2555.87 296.783 2546.5 267.5 2575.55 277.574Z" fill="#4472C4"/><rect x="3430.5" y="555.5" width="416" height="78" stroke="#4472C4" stroke-width="4.58333" stroke-linejoin="round" stroke-miterlimit="10" fill="#FFFFFF" fill-opacity="0.6"/><text font-family="Arial,Arial_MSFontService,sans-serif" font-weight="400" font-size="37" transform="matrix(1 0 0 1 3463.35 607)">samtools<tspan font-size="37" x="157.552" y="0">v1.9</tspan></text><path d="M3976.11 597.692 3869.4 596.951 3869.43 592.367 3976.14 593.108ZM3873.9 608.44 3846.5 594.5 3874.09 580.941Z" fill="#3F6EC3"/><path d="M3430.2 596.802 2567.2 277.599 2568.79 273.3 3431.79 592.503ZM2567.52 289.936 2546.5 267.5 2577.06 264.144Z" fill="#4472C4"/><path d="M3429.55 885.285 2562.89 185.678 2565.77 182.112 3432.43 881.718ZM2559.26 197.472 2546.5 169.5 2576.53 176.074Z" fill="#4472C4"/><rect x="3430.5" y="410.5" width="416" height="78" stroke="#4472C4" stroke-width="4.58333" stroke-linejoin="round" stroke-miterlimit="10" fill="#FFFFFF" fill-opacity="0.6"/><text font-family="Arial,Arial_MSFontService,sans-serif" font-weight="400" font-size="37" transform="matrix(1 0 0 1 3463.35 463)">bwa<tspan font-size="37" x="77.9168" y="0">v0.7.17</tspan></text><rect x="3976.5" y="411.5" width="299" height="78" stroke="#4472C4" stroke-width="4.58333" stroke-linejoin="round" stroke-miterlimit="10" fill="#FFFFFF" fill-opacity="0.6"/><text font-family="Arial,Arial_MSFontService,sans-serif" font-weight="400" font-size="37" transform="matrix(1 0 0 1 4008.72 463)">bwa<tspan font-size="37" x="67.6043" y="0">/0.7.17</tspan></text><path d="M3976.11 452.501 3869.4 451.917 3869.43 447.334 3976.14 447.917ZM3873.92 463.4 3846.5 449.5 3874.07 435.901Z" fill="#3F6EC3"/><path d="M3430.3 451.448 2567.66 178.596 2569.04 174.226 3431.68 447.078ZM2568.57 190.903 2546.5 169.5 2576.87 164.683Z" fill="#4472C4"/><path d="M3429.75 740.682 2564.53 183.831 2567.01 179.976 3432.23 736.828ZM2562.18 195.945 2546.5 169.5 2577.07 172.821Z" fill="#4472C4"/><rect x="3430.5" y="121.5" width="416" height="77" stroke="#4472C4" stroke-width="4.58333" stroke-linejoin="round" stroke-miterlimit="10" fill="#FFFFFF" fill-opacity="0.6"/><text font-family="Arial,Arial_MSFontService,sans-serif" font-weight="400" font-size="37" transform="matrix(1 0 0 1 3463.35 173)">BaseSpaceCLI<tspan font-size="37" x="256.667" y="0">v1.0.0  </tspan></text><path d="M0.780637-2.15461 2969.83 1073.56 2968.27 1077.87-0.780637 2.15461ZM2969.41 1061.22 2990.58 1083.52 2960.04 1087.08Z" fill="#3F6EC3" transform="matrix(-1 0 0 1 3431.08 160.5)"/><rect x="3430.5" y="265.5" width="416" height="78" stroke="#4472C4" stroke-width="4.58333" stroke-linejoin="round" stroke-miterlimit="10" fill="#FFFFFF" fill-opacity="0.6"/><text font-family="Arial,Arial_MSFontService,sans-serif" font-weight="400" font-size="37" transform="matrix(1 0 0 1 3463.35 318)">bscp<tspan font-size="37" x="88.2293" y="0">v0.6.1.337</tspan></text><path d="M3430.41 307.091 2568.08 80.5401 2569.25 76.1072 3431.57 302.658ZM2569.6 92.7864 2546.5 72.5 2576.59 66.189Z" fill="#4472C4"/><path d="M3430.65 596.204 2568.82 467.16 2569.5 462.627 3431.33 591.672ZM2571.66 479.171 2546.5 461.5 2575.73 451.974Z" fill="#4472C4"/><path d="M3430.31 740.871 2567.68 470.54 2569.05 466.167 3431.68 736.497ZM2568.63 482.845 2546.5 461.5 2576.85 456.603Z" fill="#4472C4"/><path d="M3430.01 885.498 2566.19 473.434 2568.17 469.297 3431.98 881.362ZM2565.4 485.751 2546.5 461.5 2577.24 460.93Z" fill="#4472C4"/><path d="M3429.56 1174.71 2562.92 477.647 2565.79 474.076 3432.43 1171.14ZM2559.31 489.45 2546.5 461.5 2576.55 468.021Z" fill="#4472C4"/><path d="M3429.76 1030.11 2564.56 475.791 2567.03 471.932 3432.23 1026.25ZM2562.24 487.913 2546.5 461.5 2577.07 464.758Z" fill="#4472C4"/><path d="M3430.2 886.224 2567.22 569.546 2568.8 565.244 3431.78 881.921ZM2567.58 581.882 2546.5 559.5 2577.05 556.065Z" fill="#4472C4"/><rect x="3976.5" y="1508.5" width="299" height="78" stroke="#4472C4" stroke-width="4.58333" stroke-linejoin="round" stroke-miterlimit="10" fill="#FFFFFF" fill-opacity="0.6"/><text font-family="Arial,Arial_MSFontService,sans-serif" font-weight="400" font-size="37" transform="matrix(1 0 0 1 4008.72 1561)">v<tspan font-size="37" x="18.3335" y="0">ep</tspan><tspan font-size="37" x="59.5835" y="0">/release103</tspan></text><rect x="3430.5" y="1423.5" width="416" height="78" stroke="#4472C4" stroke-width="4.58333" stroke-linejoin="round" stroke-miterlimit="10" fill="#FFFFFF" fill-opacity="0.6"/><text font-family="Arial,Arial_MSFontService,sans-serif" font-weight="400" font-size="37" transform="matrix(1 0 0 1 3463.35 1476)">vep<tspan font-size="37" x="69.896" y="0">release</tspan><tspan font-size="37" x="201.094" y="0">103</tspan></text><path d="M3974.87 1549.15 3864.43 1476.96 3866.94 1473.12 3977.38 1545.31ZM3862 1489.06 3846.5 1462.5 3877.04 1466.04Z" fill="#3F6EC3"/><path d="M3429.45 1464.39 2561.89 673.631 2564.98 670.243 3432.54 1461.01ZM2557.56 685.187 2546.5 656.5 2576.09 664.863Z" fill="#4472C4"/><rect x="3430.5" y="1568.5" width="416" height="78" stroke="#4472C4" stroke-width="4.58333" stroke-linejoin="round" stroke-miterlimit="10" fill="#FFFFFF" fill-opacity="0.6"/><text font-family="Arial,Arial_MSFontService,sans-serif" font-weight="400" font-size="37" transform="matrix(1 0 0 1 3463.35 1621)">f<tspan font-size="37" x="10.3125" y="0">ilter_vep</tspan><tspan font-size="37" x="159.844" y="0">release</tspan><tspan font-size="37" x="291.042" y="0">103</tspan></text><path d="M0.962821-2.07959 109.791 48.3064 107.866 52.4656-0.962821 2.07959ZM110.446 35.9828 129.625 60.0142 98.8925 60.938Z" fill="#3F6EC3" transform="matrix(-1 0 0 1 3976.12 1547.5)"/><path d="M3429.31 1609.01 2560.43 674.84 2563.79 671.719 3432.67 1605.88ZM2555.16 686.001 2546.5 656.5 2575.3 667.272Z" fill="#4472C4"/><path d="M3430.66 885.626 2568.84 759.096 2569.51 754.562 3431.32 881.091ZM2571.71 771.099 2546.5 753.5 2575.71 743.891Z" fill="#4472C4"/><path d="M3429.28 1753.35 2559.98 772.172 2563.41 769.133 3432.71 1750.31ZM2554.44 783.202 2546.5 753.5 2575.03 764.965Z" fill="#4472C4"/><rect x="3430.5" y="1713.5" width="416" height="78" stroke="#4472C4" stroke-width="4.58333" stroke-linejoin="round" stroke-miterlimit="10" fill="#FFFFFF" fill-opacity="0.6"/><text font-family="Arial,Arial_MSFontService,sans-serif" font-weight="400" font-size="37" transform="matrix(1 0 0 1 3463.35 1765)">bcftools<tspan font-size="37" x="137.5" y="0">v1.3 </tspan></text><rect x="3976.5" y="1715.5" width="299" height="77.9996" stroke="#4472C4" stroke-width="4.58333" stroke-linejoin="round" stroke-miterlimit="10" fill="#FFFFFF" fill-opacity="0.6"/><text font-family="Arial,Arial_MSFontService,sans-serif" font-weight="400" font-size="37" transform="matrix(1 0 0 1 4008.72 1767)">b<tspan font-size="37" x="20.625" y="0">cftools</tspan><tspan font-size="37" x="127.188" y="0">/1.3 </tspan></text><path d="M3976.09 1756.92 3869.38 1755.17 3869.45 1750.58 3976.16 1752.33ZM3873.77 1766.7 3846.5 1752.5 3874.22 1739.2Z" fill="#3F6EC3"/><path d="M3429.04 2187.28 2556.59 774.201 2560.49 771.793 3432.94 2184.87ZM2549.25 784.123 2546.5 753.5 2572.65 769.676Z" fill="#C00000"/><rect x="3430.5" y="1858.5" width="416" height="77" stroke="#4472C4" stroke-width="4.58333" stroke-linejoin="round" stroke-miterlimit="10" fill="#FFFFFF" fill-opacity="0.6"/><text font-family="Arial,Arial_MSFontService,sans-serif" font-weight="400" font-size="37" transform="matrix(1 0 0 1 3463.35 1910)">plink<tspan font-size="37" x="85.9375" y="0">v1.90b6.9 </tspan></text><path d="M3429.18 1897.98 2558.71 773.018 2562.33 770.213 3432.8 1895.18ZM2552.45 783.664 2546.5 753.5 2574.2 766.835Z" fill="#4472C4"/><path d="M1.20865-1.94703 866.231 535.029 863.814 538.923-1.20865 1.94703ZM868.38 522.877 884.492 549.062 853.876 546.241Z" fill="#4472C4" transform="matrix(-1 0 0 1 3430.99 594.5)"/><path d="M0.952738-2.08423 864.601 392.704 862.696 396.873-0.952738 2.08423ZM865.198 380.378 884.492 404.316 853.765 405.389Z" fill="#4472C4" transform="matrix(-1 0 0 1 3430.99 739.5)"/><path d="M0.645317-2.19893 863.149 250.919 861.858 255.316-0.645317 2.19893ZM861.977 238.633 884.492 259.57 854.233 265.02Z" fill="#4472C4" transform="matrix(-1 0 0 1 3430.99 883.5)"/><path d="M3430.91 1175.71 2569.33 1146.57 2569.48 1141.98 3431.07 1171.13ZM2573.52 1158.17 2546.5 1143.5 2574.45 1130.69Z" fill="#4472C4"/><path d="M0.295028-2.2726 862.061 109.602 861.471 114.147-0.295028 2.2726ZM858.991 97.6485 884.492 114.824 855.451 124.92Z" fill="#4472C4" transform="matrix(-1 0 0 1 3430.99 1028.5)"/><path d="M1.3522-1.85021 867.341 631.047 864.637 634.747-1.3522 1.85021ZM870.403 619.092 884.492 646.42 854.177 641.294Z" fill="#4472C4" transform="matrix(-1 0 0 1 3430.99 594.5)"/><path d="M1.13061-1.99335 865.691 488.375 863.43 492.362-1.13061 1.99335ZM867.356 476.146 884.492 501.674 853.788 500.066Z" fill="#4472C4" transform="matrix(-1 0 0 1 3430.99 739.5)"/><path d="M0.174216-2.28503 861.818 63.4086 861.47 67.9786-0.174216 2.28503ZM858.117 51.6348 884.492 67.4356 856.027 79.0552Z" fill="#4472C4" transform="matrix(-1 0 0 1 3430.99 1173.5)"/><path d="M0.534583-2.22844 862.742 204.607 861.672 209.064-0.534583 2.22844ZM860.959 192.396 884.492 212.182 854.544 219.137Z" fill="#4472C4" transform="matrix(-1 0 0 1 3430.99 1028.5)"/><path d="M0.857584-2.12516 864.102 346.228 862.387 350.478-0.857584 2.12516ZM864.136 333.886 884.492 356.928 853.845 359.388Z" fill="#4472C4" transform="matrix(-1 0 0 1 3430.99 883.5)"/><path d="M1.047-2.03851 865.154 441.777 863.06 445.854-1.047 2.03851ZM866.312 429.49 884.492 454.285 853.748 453.952Z" fill="#4472C4" transform="matrix(-1 0 0 1 3430.99 883.5)"/><path d="M0.0291511-2.29148 1406.99 15.6072 1406.93 20.1901-0.0291511 2.29148ZM1402.54 4.09136 1429.86 18.1901 1402.19 31.5891Z" fill="#4472C4" transform="matrix(-1 0 0 1 3976.36 1319.5)"/><path d="M3975.29 1322.19 2565.66 572.289 2567.81 568.242 3977.44 1318.14ZM2564.32 584.555 2546.5 559.5 2577.24 560.277Z" fill="#4472C4"/><path d="M1.17916-1.96502 2049.95 1227.45 2047.6 1231.38-1.17916 1.96502ZM2051.92 1215.27 2068.43 1241.21 2037.77 1238.85Z" fill="#4472C4" transform="matrix(-1 0 0 1 3430.93 594.5)"/><path d="M2.19209-0.668191 364.667 1188.48 360.283 1189.82-2.19209 0.668191ZM374.291 1180.75 369.157 1211.07 347.986 1188.77Z" fill="#4472C4" transform="matrix(-1 0 0 1 3430.66 594.5)"/><path d="M0.698757-2.18254 2047.3 653.053 2045.9 657.418-0.698757 2.18254ZM2046.43 640.744 2068.43 662.225 2038.05 666.935Z" fill="#3F6EC3" transform="matrix(-1 0 0 1 3430.93 1173.5)"/><path d="M1.81072-1.40465 356.921 456.366 353.3 459.175-1.81072 1.40465ZM363.166 445.722 369.157 475.878 341.437 462.577Z" fill="#4472C4" transform="matrix(-1 0 0 1 3430.66 1173.5)"/><path d="M1.67202-1.56719 870.494 925.365 867.15 928.5-1.67202 1.56719ZM875.718 914.183 884.492 943.651 855.654 932.99Z" fill="#4472C4" transform="matrix(-1 0 0 1 3430.99 1173.5)"/><path d="M0.651215-2.19719 863.172 253.441 861.869 257.835-0.651215 2.19719ZM862.033 241.153 884.492 262.15 854.219 267.519Z" fill="#4472C4" transform="matrix(-1 0 0 1 3430.99 1173.5)"/><path d="M0.83292-2.13494 2047.92 796.507 2046.25 800.777-0.83292 2.13494ZM2047.81 784.166 2068.43 806.971 2037.81 809.785Z" fill="#3F6EC3" transform="matrix(-1 0 0 1 3430.93 1028.5)"/><path d="M3430.55 1754.13 1384.74 1411.55 1385.5 1407.03 3431.31 1749.61ZM1387.35 1423.6 1362.5 1405.5 1391.89 1396.48Z" fill="#3F6EC3"/><rect x="3976.5" y="2144.5" width="299" height="77.9998" stroke="#4472C4" stroke-width="4.58333" stroke-linejoin="round" stroke-miterlimit="10" fill="#FFFFFF" fill-opacity="0.6"/><text font-family="Arial,Arial_MSFontService,sans-serif" font-weight="400" font-size="37" transform="matrix(1 0 0 1 4008.72 2197)">python<tspan font-size="37" x="111.146" y="0">/2.7.1</tspan><tspan font-size="37" x="203.958" y="0">5</tspan></text><rect x="3976.5" y="2292.5" width="299" height="78" stroke="#4472C4" stroke-width="4.58333" stroke-linejoin="round" stroke-miterlimit="10" fill="#FFFFFF" fill-opacity="0.6"/><text font-family="Arial,Arial_MSFontService,sans-serif" font-weight="400" font-size="37" transform="matrix(1 0 0 1 4008.72 2344)">p<tspan font-size="37" x="20.625" y="0">erl</tspan><tspan font-size="37" x="61.3023" y="0">/5.28.0</tspan></text><path d="M4008.72 2348.35 4039.22 2348.35 4069.72 2348.35 4069.72 2351.35 4039.22 2351.35 4008.72 2351.35Z" fill-rule="evenodd"/><rect x="0.499836" y="2142.5" width="440" height="77" stroke="#000000" stroke-width="4.58333" stroke-linejoin="round" stroke-miterlimit="10" fill="#FFFFFF" fill-opacity="0.6"/><text font-family="Arial,Arial_MSFontService,sans-serif" font-weight="400" font-size="37" transform="matrix(1 0 0 1 33 2194)">run_analysis.sh</text><path d="M2.29167-9.87412e-07 2.29202 814.672-2.29132 814.672-2.29167 9.87412e-07ZM13.7503 810.089 0.000360892 837.589-13.7497 810.089Z" transform="matrix(1 0 0 -1 220.5 2142.09)"/><rect x="3430.5" y="2147.5" width="416" height="78" stroke="#4472C4" stroke-width="4.58333" stroke-linejoin="round" stroke-miterlimit="10" fill="#FFFFFF" fill-opacity="0.6"/><text font-family="Arial,Arial_MSFontService,sans-serif" font-weight="400" font-size="37" transform="matrix(1 0 0 1 3463.35 2200)">Python <tspan font-size="37" x="125.469" y="0">v</tspan><tspan font-size="37" x="143.802" y="0">2.7.15</tspan></text><rect x="3430.5" y="2292.5" width="416" height="78" stroke="#4472C4" stroke-width="4.58333" stroke-linejoin="round" stroke-miterlimit="10" fill="#FFFFFF" fill-opacity="0.6"/><text font-family="Arial,Arial_MSFontService,sans-serif" font-weight="400" font-size="37" transform="matrix(1 0 0 1 3463.35 2344)">Perl v5.28.0</text><path d="M0.0474657-2.29117 106.76-0.0804312 106.665 4.50192-0.0474657 2.29117ZM102.415-11.6312 129.625 2.6854 101.846 15.8629Z" fill="#3F6EC3" transform="matrix(-1 0 0 1 3976.12 2183.5)"/><path d="M6.38031e-06-2.29167 106.708-2.29137 106.708 2.29196-6.38031e-06 2.29167ZM102.125-13.7497 129.625 0.000360892 102.125 13.7503Z" fill="#3F6EC3" transform="matrix(-1 0 0 1 3976.12 2331.5)"/><path d="M3431.08 2189.16 463.385 2183.83 463.393 2179.25 3431.09 2184.58ZM467.975 2195.3 440.5 2181.5 468.024 2167.8Z" fill="#3F6EC3"/><path d="M3430.97 2333.91 463.278 2184.94 463.508 2180.36 3431.2 2329.33ZM467.276 2196.61 440.5 2181.5 468.655 2169.15Z" fill="#3F6EC3"/><path d="M3430.4 2333.47 1384.25 1843.07 1385.32 1838.61 3431.46 2329.02ZM1386.04 1855.28 1362.5 1835.5 1392.45 1828.54Z" fill="#4472C4"/><rect x="3976.5" y="2002.5" width="299" height="77.0001" stroke="#4472C4" stroke-width="4.58333" stroke-linejoin="round" stroke-miterlimit="10" fill="#FFFFFF" fill-opacity="0.6"/><text font-family="Arial,Arial_MSFontService,sans-serif" font-weight="400" font-size="37" transform="matrix(1 0 0 1 4008.72 2054)">a<tspan font-size="37" x="20.625" y="0">nnotsv</tspan><tspan font-size="37" x="129.479" y="0">/2.2</tspan></text><rect x="3430.5" y="2002.5" width="416" height="78.0001" stroke="#4472C4" stroke-width="4.58333" stroke-linejoin="round" stroke-miterlimit="10" fill="#FFFFFF" fill-opacity="0.6"/><text font-family="Arial,Arial_MSFontService,sans-serif" font-weight="400" font-size="37" transform="matrix(1 0 0 1 3463.35 2055)">Annotsv<tspan font-size="37" x="143.802" y="0">v</tspan><tspan font-size="37" x="162.136" y="0">2.2</tspan></text><path d="M0.0145979-2.29162 106.723-1.61188 106.694 2.97136-0.0145979 2.29162ZM102.213-13.0992 129.625 0.825722 102.038 14.4003Z" fill="#3F6EC3" transform="matrix(-1 0 0 1 3976.12 2040.5)"/><path d="M3430.7 2044.03 1385.08 1840.05 1385.54 1835.49 3431.16 2039.47ZM1388.5 1851.91 1362.5 1835.5 1391.23 1824.55Z" fill="#4472C4"/><text font-family="Arial,Arial_MSFontService,sans-serif" font-weight="700" font-size="55" transform="matrix(1 0 0 1 3408.62 70)">Programs<tspan font-size="55" x="541.634" y="0">Modules</tspan><tspan font-size="55" x="-1922" y="0">Tasks</tspan><tspan font-size="55" x="-2855.94" y="0">Pipelines</tspan><tspan font-size="55" x="-3375.62" y="0">Main</tspan><tspan font-size="55" x="-3234.69" y="0">script</tspan></text></g></svg>